<?xml version="1.0" encoding="UTF-8" standalone="no"?>
<!-- Created with Inkscape (http://www.inkscape.org/) -->

<svg
        stroke="currentColor"

        version="1.1"
        id="svg2031"
        xml:space="preserve"
        width="682.66669"
        height="682.66669"
        viewBox="0 0 682.66669 682.66669"
        xmlns="http://www.w3.org/2000/svg"
        xmlns:svg="http://www.w3.org/2000/svg"><defs
     id="defs2035"><clipPath
       clipPathUnits="userSpaceOnUse"
       id="clipPath2045"><path
         d="M 0,512 H 512 V 0 H 0 Z"
         id="path2043" /></clipPath></defs>
    <g
            id="g2037"
            transform="matrix(1.3333333,0,0,-1.3333333,0,682.66667)">
        <g id="g2039">
          <g id="g2041" clip-path="url(#clipPath2045)">
            <g id="g2047" transform="translate(82.1504,165.8184)">
              <path
                      d="M 0,0 C 64.267,16.423 74.368,58.117 157.817,58.117"
                      style="fill:none;stroke:currentColor;stroke-width:15;stroke-linecap:round;stroke-linejoin:round;stroke-miterlimit:10;stroke-dasharray:none;stroke-opacity:1"
                      id="path2049"/>
            </g>
              <g id="g2051" transform="translate(408.3022,367.6084)">
              <path
                      d="m 0,0 -32.061,-7.399 -19.695,8.441 c -23.459,10.054 -49.792,11.149 -74.004,3.079 l -23.451,-7.817 c -7.357,-2.452 -15.06,-3.703 -22.815,-3.703 h -40.457 c -46.468,0 -88.776,-26.773 -108.668,-68.768 l -15.09,-31.857 c -16.206,-34.212 -38.028,-65.469 -64.561,-92.471 l 24.048,-39.372 h 32.065 l -16.033,32.065"
                      style="fill:none;stroke:currentColor;stroke-width:15;stroke-linecap:round;stroke-linejoin:round;stroke-miterlimit:10;stroke-dasharray:none;stroke-opacity:1"
                      id="path2053"/>
            </g>
              <g id="g2055" transform="translate(384.2583,312.1128)">
              <path
                      d="M 0,0 6.981,-17.453 C 12.33,-30.826 25.94,-38.991 40.257,-37.417 l 61.509,6.765 c 6.661,0.733 12.163,5.53 13.797,12.029 L 120.242,0 96.193,7.641 v 0.013 c 0,24.974 -17.586,45.034 -40.077,50.092"
                      style="fill:none;stroke:currentColor;stroke-width:15;stroke-linecap:round;stroke-linejoin:round;stroke-miterlimit:10;stroke-dasharray:none;stroke-opacity:1"
                      id="path2057"/>
            </g>
              <g id="g2059" transform="translate(143.7744,191.8711)">
              <path
                      d="m 0,0 c 14.597,-19.463 20.334,-38.927 22.588,-51.219 1.382,-7.53 8.067,-12.91 15.722,-12.91 h 33.835 l -16.032,24.048 c 0,32.065 32.064,46.093 32.064,72.145"
                      style="fill:none;stroke:currentColor;stroke-width:15;stroke-linecap:round;stroke-linejoin:round;stroke-miterlimit:10;stroke-dasharray:none;stroke-opacity:1"
                      id="path2061"/>
            </g>
              <g id="g2063" transform="translate(440.3711,368.2256)">
              <path
                      d="m 0,0 c 0,8.854 -7.178,16.033 -16.032,16.033 -8.855,0 -16.032,-7.179 -16.032,-16.033 0,-2.922 0.781,-5.663 2.147,-8.022"
                      style="fill:none;stroke:currentColor;stroke-width:15;stroke-linecap:round;stroke-linejoin:round;stroke-miterlimit:10;stroke-dasharray:none;stroke-opacity:1"
                      id="path2065"/>
            </g>
              <g id="g2067" transform="translate(335.875,207.1943)">
              <path
                      d="m 0,0 72.432,-79.453 h 56.112 L 88.464,-47.388 56.399,-7.307 40.367,48.806 c 0,0 -24.049,-40.081 -72.145,-56.113 v -48.097 l 16.032,-24.049 h -40.081 c -8.854,0 -16.032,7.179 -16.032,16.033 v 15.323 C -95.907,-8.725 -95.907,40.79 -95.907,40.79"
                      style="fill:none;stroke:currentColor;stroke-width:15;stroke-linecap:round;stroke-linejoin:round;stroke-miterlimit:10;stroke-dasharray:none;stroke-opacity:1"
                      id="path2069"/>
            </g>
              <g id="g2071" transform="translate(448.3872,328.145)">
              <path
                      d="M 0,0 V -8.016"
                      style="fill:none;stroke:currentColor;stroke-width:15;stroke-linecap:round;stroke-linejoin:round;stroke-miterlimit:10;stroke-dasharray:none;stroke-opacity:1"
                      id="path2073"/>
            </g>
          </g>
        </g>
    </g>
</svg>
