<svg xmlns="http://www.w3.org/2000/svg" version="1.1" xmlns:xlink="http://www.w3.org/1999/xlink" width="512" height="512" x="0" y="0" viewBox="0 0 682.667 682.667" style="enable-background:new 0 0 512 512" xml:space="preserve"><g transform="matrix(0.8500000000000005,0,0,0.8500000000000005,51.19987850189193,51.20017633438084)"><defs><clipPath id="a" clipPathUnits="userSpaceOnUse"><path d="M0 512h512V0H0Z" fill="#000000" opacity="1" data-original="#000000"></path></clipPath></defs><g clip-path="url(#a)" transform="matrix(1.33333 0 0 -1.33333 0 682.667)"><path d="M0 0c4.88-1.362 10.007-2.184 15.48-2.254 42.222 0 64.2 35.385 64.348 73.415.17 44.095-15.131 85.225-51.032 112.882l-68.255 52.582c-30.38 23.404-72.785 23.404-103.165 0l-68.255-52.582c-36.548-28.155-51.451-70.064-51.032-114.857.352-37.731 23.493-70.98 64.347-71.44 42.816 0 65.201 45.373 110.021 43.514 20.641-.858 36.383-11.814 52.126-22.518" style="stroke-width:15;stroke-linecap:round;stroke-linejoin:round;stroke-miterlimit:10;stroke-dasharray:none;stroke-opacity:1" transform="translate(347.777 9.754)" fill="none" stroke="#060606" stroke-width="15" stroke-linecap="round" stroke-linejoin="round" stroke-miterlimit="10" stroke-dasharray="none" stroke-opacity="" data-original="#060606"></path><path d="M0 0c0-28.612-16.915-51.807-37.781-51.807-20.865 0-37.781 23.195-37.781 51.807 0 28.611 16.916 51.806 37.781 51.806C-16.915 51.806 0 28.611 0 0Z" style="stroke-width:15;stroke-linecap:round;stroke-linejoin:round;stroke-miterlimit:10;stroke-dasharray:none;stroke-opacity:1" transform="translate(471.644 247.157)" fill="none" stroke="#060606" stroke-width="15" stroke-linecap="round" stroke-linejoin="round" stroke-miterlimit="10" stroke-dasharray="none" stroke-opacity="" data-original="#060606"></path><path d="M0 0c0-28.611-16.915-51.806-37.78-51.806-20.866 0-37.782 23.195-37.782 51.806 0 28.612 16.916 51.807 37.782 51.807C-16.915 51.807 0 28.612 0 0Z" style="stroke-width:15;stroke-linecap:round;stroke-linejoin:round;stroke-miterlimit:10;stroke-dasharray:none;stroke-opacity:1" transform="translate(388.111 308.08)" fill="none" stroke="#060606" stroke-width="15" stroke-linecap="round" stroke-linejoin="round" stroke-miterlimit="10" stroke-dasharray="none" stroke-opacity="" data-original="#060606"></path><path d="M0 0c0-28.612-16.915-51.807-37.781-51.807-20.865 0-37.781 23.195-37.781 51.807 0 28.611 16.916 51.806 37.781 51.806C-16.915 51.806 0 28.611 0 0Z" style="stroke-width:15;stroke-linecap:round;stroke-linejoin:round;stroke-miterlimit:10;stroke-dasharray:none;stroke-opacity:1" transform="translate(293.573 344.047)" fill="none" stroke="#060606" stroke-width="15" stroke-linecap="round" stroke-linejoin="round" stroke-miterlimit="10" stroke-dasharray="none" stroke-opacity="" data-original="#060606"></path><path d="M0 0c0-28.612 16.915-51.807 37.781-51.807 20.865 0 37.781 23.195 37.781 51.807 0 28.611-16.916 51.806-37.781 51.806C16.915 51.806 0 28.611 0 0Z" style="stroke-width:15;stroke-linecap:round;stroke-linejoin:round;stroke-miterlimit:10;stroke-dasharray:none;stroke-opacity:1" transform="translate(40.356 247.157)" fill="none" stroke="#060606" stroke-width="15" stroke-linecap="round" stroke-linejoin="round" stroke-miterlimit="10" stroke-dasharray="none" stroke-opacity="" data-original="#060606"></path><path d="M0 0a70.439 70.439 0 0 1-.9-11.229c0-28.611 16.915-51.806 37.78-51.806 20.866 0 37.781 23.195 37.781 51.806 0 28.612-16.915 51.807-37.781 51.807-6.275 0-12.188-2.11-17.396-5.822" style="stroke-width:15;stroke-linecap:round;stroke-linejoin:round;stroke-miterlimit:10;stroke-dasharray:none;stroke-opacity:1" transform="translate(124.79 319.309)" fill="none" stroke="#060606" stroke-width="15" stroke-linecap="round" stroke-linejoin="round" stroke-miterlimit="10" stroke-dasharray="none" stroke-opacity="" data-original="#060606"></path><path d="M0 0v77.593S34.005 41.918 34.005-7.135z" style="stroke-width:15;stroke-linecap:round;stroke-linejoin:round;stroke-miterlimit:10;stroke-dasharray:none;stroke-opacity:1" transform="translate(416.86 328.524)" fill="none" stroke="#060606" stroke-width="15" stroke-linecap="round" stroke-linejoin="round" stroke-miterlimit="10" stroke-dasharray="none" stroke-opacity="" data-original="#060606"></path><path d="M0 0v77.593S34.006 41.918 34.006-7.135z" style="stroke-width:15;stroke-linecap:round;stroke-linejoin:round;stroke-miterlimit:10;stroke-dasharray:none;stroke-opacity:1" transform="translate(333.328 391.232)" fill="none" stroke="#060606" stroke-width="15" stroke-linecap="round" stroke-linejoin="round" stroke-miterlimit="10" stroke-dasharray="none" stroke-opacity="" data-original="#060606"></path><path d="M0 0v77.593S-34.005 41.918-34.005-7.135z" style="stroke-width:15;stroke-linecap:round;stroke-linejoin:round;stroke-miterlimit:10;stroke-dasharray:none;stroke-opacity:1" transform="translate(95.14 328.524)" fill="none" stroke="#060606" stroke-width="15" stroke-linecap="round" stroke-linejoin="round" stroke-miterlimit="10" stroke-dasharray="none" stroke-opacity="" data-original="#060606"></path><path d="M0 0v77.593S-34.006 41.918-34.006-7.135z" style="stroke-width:15;stroke-linecap:round;stroke-linejoin:round;stroke-miterlimit:10;stroke-dasharray:none;stroke-opacity:1" transform="translate(178.672 391.232)" fill="none" stroke="#060606" stroke-width="15" stroke-linecap="round" stroke-linejoin="round" stroke-miterlimit="10" stroke-dasharray="none" stroke-opacity="" data-original="#060606"></path><path d="M0 0s6.265 53.512 17.158 82.052c0 0 14.163-36.567 18.638-82.052z" style="stroke-width:15;stroke-linecap:round;stroke-linejoin:round;stroke-miterlimit:10;stroke-dasharray:none;stroke-opacity:1" transform="translate(235.268 422.448)" fill="none" stroke="#060606" stroke-width="15" stroke-linecap="round" stroke-linejoin="round" stroke-miterlimit="10" stroke-dasharray="none" stroke-opacity="" data-original="#060606"></path><path d="M0 0c-16.816-23.002-22.667-65.667-5-91" style="stroke-width:15;stroke-linecap:round;stroke-linejoin:round;stroke-miterlimit:10;stroke-dasharray:none;stroke-opacity:1" transform="translate(133 140)" fill="none" stroke="#060606" stroke-width="15" stroke-linecap="round" stroke-linejoin="round" stroke-miterlimit="10" stroke-dasharray="none" stroke-opacity="" data-original="#060606"></path></g></g></svg>